<!-- icon666.com - MILLIONS vector ICONS FREE --><svg version="1.1" id="Capa_1" xmlns="http://www.w3.org/2000/svg" xmlns:xlink="http://www.w3.org/1999/xlink" x="0px" y="0px" viewBox="0 0 512 512" style="enable-background:new 0 0 512 512;" xml:space="preserve"><path style="fill:#716499;" d="M409.252,314.372c-5.725,20.049-14.859,38.204-26.585,54.01c-4.471,6.029-9.323,11.716-14.513,17.038 c-41.75,42.853-105.112,61.997-166.669,44.42c-71.834-20.512-119.34-84.772-121.862-155.587 c-0.615-17.187,1.417-34.748,6.394-52.178c1.154-4.04,2.452-8.015,3.875-11.897c5.222-14.25,12.216-27.4,20.666-39.283 c12.435-17.515,28.015-32.292,45.679-43.722c16.896-10.94,35.695-18.832,55.505-23.171c26.292-5.775,54.352-5.301,82.039,2.605 c87.865,25.089,139.321,115.622,116.605,203.581C410.024,311.586,409.651,312.971,409.252,314.372z"></path><path style="fill:#503D7F;" d="M368.155,385.421c-41.75,42.853-105.112,61.997-166.669,44.42 c-71.834-20.512-119.34-84.772-121.862-155.587c-0.615-17.187,1.417-34.748,6.394-52.178c1.154-4.04,2.452-8.015,3.875-11.897 c5.222-14.25,12.216-27.4,20.666-39.283c12.435-17.515,28.015-32.292,45.679-43.722c16.896-10.94,35.695-18.832,55.505-23.171 c-15.811,18.485-27.596,40.334-34.478,64.433c-12.583,44.107-7.248,90.466,15.035,130.559 c22.275,40.08,58.826,69.089,102.931,81.683C319.331,387.559,344.108,389.087,368.155,385.421z"></path><path id="SVGCleanerId_0" style="fill:#FEC007;" d="M479.383,434.454l4.123,8.353c1.065,2.158,3.124,3.654,5.505,4l9.218,1.34 c5.997,0.871,8.391,8.241,4.052,12.471l-6.671,6.502c-1.723,1.68-2.509,4.1-2.103,6.471l1.575,9.181 c1.024,5.973-5.245,10.527-10.608,7.707l-8.245-4.335c-2.13-1.12-4.675-1.12-6.805,0l-8.245,4.335 c-5.364,2.82-11.633-1.735-10.608-7.707l1.575-9.181c0.407-2.372-0.38-4.792-2.103-6.471l-6.671-6.502 c-4.339-4.23-1.945-11.599,4.052-12.471l9.218-1.34c2.381-0.346,4.44-1.842,5.505-4l4.123-8.353 C468.953,429.02,476.701,429.02,479.383,434.454z"></path><g><path id="SVGCleanerId_0_1_" style="fill:#FEC007;" d="M479.383,434.454l4.123,8.353c1.065,2.158,3.124,3.654,5.505,4l9.218,1.34 c5.997,0.871,8.391,8.241,4.052,12.471l-6.671,6.502c-1.723,1.68-2.509,4.1-2.103,6.471l1.575,9.181 c1.024,5.973-5.245,10.527-10.608,7.707l-8.245-4.335c-2.13-1.12-4.675-1.12-6.805,0l-8.245,4.335 c-5.364,2.82-11.633-1.735-10.608-7.707l1.575-9.181c0.407-2.372-0.38-4.792-2.103-6.471l-6.671-6.502 c-4.339-4.23-1.945-11.599,4.052-12.471l9.218-1.34c2.381-0.346,4.44-1.842,5.505-4l4.123-8.353 C468.953,429.02,476.701,429.02,479.383,434.454z"></path></g><path id="SVGCleanerId_1" style="fill:#FEC007;" d="M278.197,216.274l1.671,9.164c0.432,2.367,2,4.371,4.195,5.357l8.496,3.819 c5.527,2.484,5.806,10.228,0.472,13.104l-8.199,4.421c-2.118,1.142-3.539,3.253-3.799,5.645l-1.007,9.261 c-0.655,6.024-7.933,8.683-12.317,4.498l-6.738-6.432c-1.741-1.662-4.187-2.36-6.543-1.868l-9.119,1.904 c-5.932,1.239-10.709-4.862-8.084-10.324l4.035-8.396c1.042-2.169,0.951-4.712-0.245-6.8l-4.629-8.084 c-3.011-5.259,1.315-11.688,7.32-10.879l9.232,1.243c2.385,0.321,4.775-0.552,6.392-2.334l6.258-6.9 C269.659,208.185,277.11,210.313,278.197,216.274z"></path><g><path id="SVGCleanerId_1_1_" style="fill:#FEC007;" d="M278.197,216.274l1.671,9.164c0.432,2.367,2,4.371,4.195,5.357l8.496,3.819 c5.527,2.484,5.806,10.228,0.472,13.104l-8.199,4.421c-2.118,1.142-3.539,3.253-3.799,5.645l-1.007,9.261 c-0.655,6.024-7.933,8.683-12.317,4.498l-6.738-6.432c-1.741-1.662-4.187-2.36-6.543-1.868l-9.119,1.904 c-5.932,1.239-10.709-4.862-8.084-10.324l4.035-8.396c1.042-2.169,0.951-4.712-0.245-6.8l-4.629-8.084 c-3.011-5.259,1.315-11.688,7.32-10.879l9.232,1.243c2.385,0.321,4.775-0.552,6.392-2.334l6.258-6.9 C269.659,208.185,277.11,210.313,278.197,216.274z"></path></g><path id="SVGCleanerId_2" style="fill:#FEC007;" d="M45.729,16.643l4.123,8.353c1.065,2.158,3.124,3.654,5.505,4l9.218,1.34 c5.997,0.871,8.391,8.241,4.052,12.471l-6.671,6.502c-1.723,1.68-2.509,4.1-2.103,6.471l1.575,9.181 c1.024,5.973-5.245,10.527-10.608,7.707l-8.245-4.335c-2.13-1.12-4.675-1.12-6.805,0l-8.245,4.335 c-5.364,2.82-11.633-1.735-10.608-7.707l1.575-9.181c0.407-2.372-0.38-4.792-2.103-6.471l-6.671-6.502 c-4.339-4.23-1.945-11.599,4.052-12.471l9.218-1.34c2.381-0.346,4.44-1.842,5.505-4l4.123-8.353 C35.299,11.209,43.048,11.209,45.729,16.643z"></path><g><path id="SVGCleanerId_2_1_" style="fill:#FEC007;" d="M45.729,16.643l4.123,8.353c1.065,2.158,3.124,3.654,5.505,4l9.218,1.34 c5.997,0.871,8.391,8.241,4.052,12.471l-6.671,6.502c-1.723,1.68-2.509,4.1-2.103,6.471l1.575,9.181 c1.024,5.973-5.245,10.527-10.608,7.707l-8.245-4.335c-2.13-1.12-4.675-1.12-6.805,0l-8.245,4.335 c-5.364,2.82-11.633-1.735-10.608-7.707l1.575-9.181c0.407-2.372-0.38-4.792-2.103-6.471l-6.671-6.502 c-4.339-4.23-1.945-11.599,4.052-12.471l9.218-1.34c2.381-0.346,4.44-1.842,5.505-4l4.123-8.353 C35.299,11.209,43.048,11.209,45.729,16.643z"></path></g><path style="fill:#FEC007;" d="M433.936,380.347c0.096-0.053,0.192-0.107,0.288-0.16c7.389-4.123,15.366,4.265,10.844,11.416 c-20.072,31.742-48.155,59.048-83.287,78.573c-111.833,62.152-252.826,22.005-315.181-89.615 C-15.59,269.239,23.051,129.596,133.682,66.187c35.881-20.564,74.889-30.482,113.41-30.778c8.475-0.065,11.41,11.129,3.995,15.233 c-0.099,0.055-0.198,0.11-0.297,0.165c-90.995,50.571-123.754,165.352-73.182,256.347 C228.179,398.148,342.942,430.918,433.936,380.347z"></path><path style="fill:#FF9300;" d="M376.688,461.123c-4.817,3.177-9.766,6.188-14.903,9.043 c-111.987,62.238-253.204,21.915-315.442-90.072C-15.903,268.129,24.428,126.889,136.415,64.65 c5.136-2.855,10.306-5.468,15.548-7.881C51.503,122.866,17.572,256.288,76.939,363.109 C136.289,469.899,267.511,511.535,376.688,461.123z"></path><path d="M511.264,450.804c-1.755-5.4-6.337-9.263-11.957-10.079l-9.12-1.326l-4.079-8.264c-2.514-5.093-7.604-8.257-13.283-8.257 s-10.769,3.164-13.281,8.257l-4.079,8.264l-9.12,1.326c-5.62,0.816-10.201,4.679-11.957,10.079 c-1.755,5.401-0.319,11.219,3.748,15.185l6.599,6.433l-1.558,9.083c-0.96,5.597,1.298,11.147,5.892,14.486 c4.594,3.337,10.57,3.771,15.599,1.128l8.157-4.289l8.158,4.289c2.186,1.149,4.551,1.717,6.905,1.717 c3.058,0,6.096-0.959,8.692-2.845c4.594-3.339,6.852-8.89,5.892-14.486l-1.558-9.083l6.6-6.434 C511.584,462.023,513.019,456.205,511.264,450.804z M490.377,461.748c-3.492,3.402-5.085,8.304-4.261,13.11l1.509,8.805 l-7.905-4.156c-2.158-1.136-4.525-1.703-6.893-1.703c-2.367,0-4.735,0.567-6.893,1.702l-7.907,4.156l1.51-8.804 c0.824-4.806-0.768-9.707-4.26-13.11l-6.395-6.234l8.838-1.285c4.826-0.7,8.995-3.729,11.153-8.103l3.954-8.009l3.953,8.008 c2.158,4.374,6.327,7.403,11.152,8.104l8.839,1.286L490.377,461.748z"></path><path d="M232.154,267.123c3.502,4.471,9.127,6.521,14.689,5.366l9.021-1.884l6.667,6.364c2.816,2.688,6.459,4.109,10.19,4.109 c1.711-0.001,3.441-0.3,5.118-0.912c5.334-1.948,9.029-6.666,9.643-12.312l0.996-9.162l8.111-4.373 c5-2.694,7.979-7.895,7.774-13.569c-0.205-5.677-3.549-10.649-8.729-12.978l-8.406-3.778l-1.653-9.066 c-1.019-5.588-5.044-10.027-10.505-11.587c-5.462-1.557-11.223,0.086-15.038,4.293l-6.191,6.826l-9.134-1.229 c-5.632-0.758-11.095,1.698-14.265,6.41c-3.171,4.711-3.387,10.7-0.565,15.629l4.58,7.997l-3.992,8.306 C228.005,256.693,228.652,262.651,232.154,267.123z M251.937,229.34c4.831,0.649,9.673-1.116,12.949-4.729l6.001-6.616l1.602,8.788 c0.875,4.797,4.052,8.854,8.499,10.853l8.146,3.663l-7.862,4.239c-4.291,2.314-7.167,6.589-7.694,11.436l-0.966,8.88l-6.461-6.168 c-2.784-2.656-6.456-4.098-10.225-4.098c-1.007,0-2.022,0.104-3.029,0.313l-8.744,1.825l3.869-8.05 c2.112-4.395,1.927-9.544-0.497-13.777l-4.438-7.75L251.937,229.34z"></path><path d="M15.418,78.179c4.594,3.337,10.57,3.771,15.599,1.128l8.157-4.289l8.158,4.289c2.186,1.149,4.551,1.717,6.905,1.717 c3.058,0,6.096-0.959,8.692-2.845c4.594-3.339,6.852-8.89,5.892-14.486l-1.558-9.083l6.6-6.434 c4.067-3.965,5.502-9.782,3.748-15.184c-1.755-5.4-6.337-9.263-11.956-10.079l-9.121-1.326l-4.079-8.263 c-2.513-5.094-7.602-8.258-13.281-8.258l0,0c-5.679,0-10.769,3.164-13.282,8.257l-4.079,8.264l-9.12,1.326 C7.073,23.73,2.491,27.593,0.736,32.993c-1.755,5.401-0.319,11.219,3.748,15.185l6.6,6.433l-1.558,9.083 C8.566,69.289,10.823,74.84,15.418,78.179z M24.067,36.418c4.826-0.7,8.995-3.729,11.153-8.103l3.954-8.009l3.953,8.008 c2.158,4.374,6.327,7.403,11.152,8.104l8.839,1.286l-6.396,6.234c-3.491,3.402-5.083,8.304-4.259,13.109l1.509,8.805l-7.906-4.157 c-2.158-1.135-4.525-1.702-6.893-1.702c-2.367,0-4.734,0.567-6.892,1.702l-7.907,4.156l1.51-8.804 c0.824-4.807-0.769-9.708-4.26-13.11l-6.395-6.234L24.067,36.418z"></path><path d="M350.849,302.561c0.688,0.196,1.381,0.29,2.063,0.29c3.264,0,6.267-2.147,7.208-5.442l0.255-0.893 c1.137-3.983-1.169-8.134-5.152-9.271c-3.984-1.138-8.134,1.169-9.271,5.152l-0.255,0.893 C344.559,297.273,346.866,301.423,350.849,302.561z"></path><path d="M55.678,452.893c-4.142,0-7.5,3.357-7.5,7.5v0.928c0,4.143,3.358,7.5,7.5,7.5s7.5-3.357,7.5-7.5v-0.928 C63.178,456.25,59.82,452.893,55.678,452.893z"></path><path d="M335.608,328.62l-0.255,0.893c-1.137,3.983,1.169,8.134,5.152,9.271c0.688,0.196,1.381,0.29,2.063,0.29 c3.264,0,6.267-2.147,7.208-5.442l0.255-0.893c1.137-3.983-1.169-8.134-5.152-9.271C340.894,322.331,336.744,324.637,335.608,328.62 z"></path><path d="M263.945,178.449c0.689,0.197,1.383,0.291,2.065,0.291c3.263,0,6.266-2.146,7.207-5.44l0.255-0.892 c1.139-3.982-1.167-8.134-5.149-9.272c-3.98-1.141-8.134,1.167-9.272,5.149l-0.255,0.892 C257.657,173.159,259.963,177.311,263.945,178.449z"></path><path d="M446.447,249.472l-0.255,0.893c-1.137,3.983,1.169,8.134,5.152,9.271c0.688,0.196,1.381,0.29,2.063,0.29 c3.264,0,6.267-2.147,7.208-5.442l0.255-0.893c1.137-3.983-1.169-8.134-5.152-9.271C451.734,243.18,447.585,245.487,446.447,249.472 z"></path><path d="M447.797,189.51c0.688,0.196,1.381,0.29,2.063,0.29c3.264,0,6.267-2.147,7.208-5.442l0.255-0.893 c1.137-3.983-1.169-8.134-5.152-9.271c-3.985-1.136-8.134,1.169-9.271,5.152l-0.255,0.893 C441.508,184.222,443.815,188.372,447.797,189.51z"></path><path d="M449.571,376.524c-4.998-5.279-12.633-6.439-18.953-2.913l-0.326,0.181c-19.162,10.649-39.686,17.613-60.729,20.82 c22.215-21.314,38.26-47.955,46.896-78.185c9.346-32.731,9.029-67.157-0.917-99.558c-9.686-31.552-27.945-59.646-52.804-81.251 c-3.126-2.719-7.864-2.385-10.581,0.741c-2.717,3.127-2.385,7.864,0.741,10.581c46.897,40.757,66.186,105.667,49.138,165.366 c-9.745,34.107-29.791,63.218-58.026,84.341c-17.14,0.132-34.397-2.184-51.338-7.021c-46.487-13.274-85.023-43.856-108.509-86.115 c-33.306-59.926-28.859-130.788,5.454-184.998c32.812-12.77,68.061-14.4,102.107-4.682c12.786,3.642,25.087,8.862,36.563,15.516 c1.185,0.687,2.478,1.013,3.755,1.013c2.587,0,5.104-1.34,6.495-3.739c2.078-3.583,0.857-8.172-2.726-10.25 c-12.548-7.275-25.999-12.983-39.974-16.964c-30.18-8.614-61.229-9.067-91.026-1.489c13.611-15.948,30.228-29.777,49.601-40.544 l0.305-0.169c6.379-3.53,9.427-10.622,7.584-17.646c-1.832-6.981-7.906-11.648-15.138-11.648c-0.043,0-0.087,0-0.13,0 c-40.879,0.314-81.364,11.3-117.082,31.771c-35.987,20.626-66.088,50.201-87.052,85.532c-2.113,3.563-0.939,8.163,2.623,10.277 c3.563,2.113,8.165,0.94,10.277-2.623c19.645-33.109,47.865-60.832,81.611-80.173c33.485-19.19,71.432-29.49,109.739-29.784 c0.309-0.005,0.522-0.005,0.644,0.455c0.121,0.461-0.062,0.563-0.379,0.738l-0.268,0.148 c-28.506,15.843-51.507,37.799-68.302,63.323c-0.425,0.496-0.779,1.044-1.06,1.628c-37.902,58.865-43.057,136.233-6.731,201.595 c25.432,45.759,67.161,78.877,117.502,93.252c50.34,14.375,103.266,8.284,149.092-17.186l0.232-0.129 c0.267-0.149,0.46-0.258,0.799,0.1c0.318,0.337,0.218,0.495,0.051,0.759c-19.924,31.509-47.792,57.798-80.592,76.026 c-41.096,22.84-87.436,32.139-134.004,26.883c-4.116-0.465-7.829,2.496-8.293,6.612c-0.464,4.116,2.496,7.829,6.612,8.294 c9.032,1.019,18.047,1.524,27.031,1.524c40.439,0,80.068-10.265,115.943-30.202c34.988-19.445,64.72-47.496,85.982-81.12 C455.295,389.462,454.558,381.791,449.571,376.524z"></path><path d="M193.889,484.976c-60.395-15.34-110.379-53.721-140.743-108.074c-33.448-59.871-37.939-130.509-12.322-193.801 c1.554-3.839-0.299-8.212-4.138-9.766c-3.838-1.552-8.212,0.299-9.766,4.139C-0.411,245.001,4.375,320.357,40.052,384.219 c16.321,29.214,38.029,54.178,64.522,74.199c25.591,19.34,54.398,33.167,85.623,41.098c0.62,0.157,1.24,0.232,1.852,0.232 c3.35,0,6.401-2.261,7.264-5.655C200.332,490.077,197.904,485.995,193.889,484.976z"></path><path d="M138.085,286.886c4.142,0,7.5-3.357,7.5-7.5v-1.009c0-4.143-3.358-7.5-7.5-7.5s-7.5,3.357-7.5,7.5v1.009 C130.585,283.528,133.943,286.886,138.085,286.886z"></path><path d="M52.028,270.877c-4.142,0-7.5,3.357-7.5,7.5v1.009c0,4.143,3.358,7.5,7.5,7.5s7.5-3.357,7.5-7.5v-1.009 C59.528,274.234,56.17,270.877,52.028,270.877z"></path><path d="M123.931,305.25c-31.077,15.322-56.069,0.968-57.206,0.296c-3.541-2.125-8.137-0.988-10.276,2.547 c-2.145,3.544-1.011,8.155,2.532,10.3c0.878,0.531,15.047,8.895,35.792,8.895c10.529,0,22.755-2.156,35.792-8.584 c3.715-1.832,5.242-6.328,3.41-10.043C132.143,304.944,127.648,303.416,123.931,305.25z"></path></svg>