<!-- icon666.com - MILLIONS vector ICONS FREE --><svg viewBox="1 1 511.9985 511.9985" xmlns="http://www.w3.org/2000/svg"><path d="m440.042969 112.765625c33.035156-9.441406 56.714843 31.574219 32.023437 55.464844-18.613281 18.007812-10.1875 49.457031 14.9375 55.746093 33.328125 8.339844 33.328125 55.703126 0 64.042969-25.125 6.289063-33.550781 37.742188-14.9375 55.75 24.691406 23.886719 1.011719 64.902344-32.023437 55.464844-24.902344-7.117187-47.925781 15.90625-40.808594 40.808594 9.4375 33.035156-31.578125 56.714843-55.464844 32.023437-18.007812-18.613281-49.460937-10.1875-55.75 14.9375-8.339843 33.328125-55.703125 33.328125-64.042969 0-6.289062-25.125-37.738281-33.550781-55.746093-14.9375-23.886719 24.691406-64.90625 1.011719-55.464844-32.023437 7.113281-24.902344-15.910156-47.925781-40.8125-40.808594-33.03125 9.4375-56.710937-31.578125-32.019531-55.464844 18.613281-18.007812 10.1875-49.460937-14.9375-55.75-33.328125-8.339843-33.328125-55.703125 0-64.042969 25.125-6.289062 33.550781-37.738281 14.9375-55.746093-24.691406-23.886719-1.011719-64.90625 32.019531-55.464844 24.902344 7.113281 47.925781-15.910156 40.8125-40.8125-9.441406-33.03125 31.574219-56.710937 55.464844-32.019531 18.007812 18.613281 49.457031 10.1875 55.746093-14.9375 8.339844-33.328125 55.703126-33.328125 64.042969 0 6.289063 25.125 37.742188 33.550781 55.75 14.9375 23.886719-24.691406 64.902344-1.011719 55.464844 32.019531-7.117187 24.902344 15.90625 47.929687 40.808594 40.8125zm0 0" fill="#ff9a47"></path><path d="m434.734375 256c0 98.710938-80.023437 178.734375-178.734375 178.734375-98.714844 0-178.738281-80.023437-178.738281-178.734375 0-98.714844 80.023437-178.738281 178.738281-178.738281 98.710938 0 178.734375 80.023437 178.734375 178.738281zm0 0" fill="#ffd576"></path><path d="m256 276.929688c-9.777344 0-17.699219-7.925782-17.699219-17.699219v-10.246094c0-1.691406 1.371094-3.0625 3.058594-3.0625h29.28125c1.6875 0 3.058594 1.371094 3.058594 3.0625v10.246094c0 9.773437-7.925781 17.699219-17.699219 17.699219zm0 0" fill="#262b3b"></path><path d="m118.46875 256c0-91.746094 69.128906-167.328125 158.132812-177.546875-6.761718-.777344-13.632812-1.191406-20.601562-1.191406-98.714844 0-178.738281 80.023437-178.738281 178.738281 0 98.710938 80.023437 178.734375 178.738281 178.734375 6.96875 0 13.839844-.414063 20.601562-1.1875-89.003906-10.21875-158.132812-85.804687-158.132812-177.546875zm0 0" fill="#f9c153"></path><path d="m321.542969 254.269531c-4.144531 0-7.5-3.359375-7.5-7.5v-11.699219c0-4.144531 3.355469-7.5 7.5-7.5 4.140625 0 7.5 3.355469 7.5 7.5v11.695313c0 4.144531-3.359375 7.503906-7.5 7.503906zm0 0" fill="#262b3b"></path><path d="m190.457031 254.269531c-4.144531 0-7.5-3.359375-7.5-7.5v-11.699219c0-4.144531 3.355469-7.5 7.5-7.5 4.140625 0 7.5 3.355469 7.5 7.5v11.695313c0 4.144531-3.359375 7.503906-7.5 7.503906zm0 0" fill="#262b3b"></path><g fill="#f17b31"><path d="m327.386719 276.382812h-11.6875c-4.140625 0-7.5-3.359374-7.5-7.5 0-4.144531 3.359375-7.5 7.5-7.5h11.6875c4.140625 0 7.5 3.355469 7.5 7.5 0 4.140626-3.359375 7.5-7.5 7.5zm0 0"></path><path d="m196.300781 276.382812h-11.6875c-4.140625 0-7.5-3.359374-7.5-7.5 0-4.144531 3.359375-7.5 7.5-7.5h11.6875c4.140625 0 7.5 3.355469 7.5 7.5 0 4.140626-3.359375 7.5-7.5 7.5zm0 0"></path></g></svg>